<?xml version="1.0" encoding="utf-8"?>
<!-- Generator: Adobe Illustrator 27.4.1, SVG Export Plug-In . SVG Version: 6.00 Build 0)  -->
<svg version="1.1" id="Layer_1" xmlns="http://www.w3.org/2000/svg" xmlns:xlink="http://www.w3.org/1999/xlink" x="0px" y="0px"
	 viewBox="0 0 1080 1080" style="enable-background:new 0 0 1080 1080;" xml:space="preserve">
<style type="text/css">
	.st0{fill:#FF6C74;}
	.st1{fill:#9D2323;}
	.st2{opacity:0.2;fill:#FF6A6A;}
	.st3{opacity:0.5;fill:#D44E50;}
</style>
<path class="st0" d="M1079.9,540c0,27.05-1.99,53.9-5.97,79.96C1035.35,880.31,810.99,1080,540.1,1080h-0.2
	C241.56,1079.8,0.1,838.14,0.1,540C0.1,241.66,241.56,0.2,539.9,0h0.2C838.24,0,1079.9,241.66,1079.9,540z"/>
<path class="st1" d="M1001.14,540c0,254.59-206.45,461.04-461.04,461.04h-0.2C285.12,1000.84,78.86,794.59,78.86,540
	c0-254.78,206.25-460.84,461.04-461.04h0.2C794.68,78.96,1001.14,285.21,1001.14,540z"/>
<path class="st2" d="M539.9,0v1080C241.76,1080,0.1,838.14,0.1,540C0.1,241.66,241.76,0,539.9,0z"/>
<path class="st0" d="M854.26,770.96c0,10.58-10.37,20.95-21.59,32.17c-16.84,16.84-32.39,31.74-48.37,12.31l-82.06-91.99
	l-41.03,41.03c-16.84,16.63-44.05,16.63-60.68,0l-17.06-17.06c-7.34-7.34-7.34-19.43,0-26.78l43.84-43.84l-87.46-87.46l-87.24,87.24
	l43.84,43.84c7.34,7.56,7.34,19.44,0,26.99l-17.06,16.84c-16.63,16.84-43.84,16.84-60.68,0l-42.76-42.76l-80.33,93.93
	c-5.61,6.69-11.01,9.29-16.2,9.29c-10.58,0-21.16-10.36-32.18-21.59c-16.84-16.84-31.74-32.39-12.31-48.59l91.99-81.84l-41.03-41.03
	c-16.63-16.84-16.63-44.05,0-60.9l17.06-16.84c7.34-7.56,19.44-7.56,26.78,0l43.84,43.84l67.81-67.81l19.65-19.43l-26.78-26.78
	l-97.39-97.39c-14.04-14.04-24.83-30.88-31.53-48.8l-18.79-51.18c-7.56-20.51,8.85-36.93,29.37-29.37l51.18,18.79
	c17.92,6.69,34.77,17.49,48.8,31.53l97.39,97.39l26.78,26.78l26.99-26.99l96.96-97.17c14.04-14.04,30.88-25.05,48.8-31.53
	L764,257.02c20.3-7.56,36.71,8.85,29.37,29.37l-18.79,51.18c-6.69,17.71-17.49,34.55-31.53,48.8L618.88,510.32l87.46,87.46
	l43.84-43.84c7.34-7.34,19.43-7.34,26.78,0L794.01,571c16.63,16.63,16.63,43.84,0,60.68l-42.76,42.76l93.72,80.33
	C851.67,760.38,854.26,765.56,854.26,770.96z"/>
<path class="st3" d="M854.26,770.96c0,10.58-10.37,20.95-21.59,32.17c-16.84,16.84-32.39,31.74-48.37,12.31l-82.06-91.99
	l-41.03,41.03c-16.84,16.63-44.05,16.63-60.68,0l-17.06-17.06c-7.34-7.34-7.34-19.43,0-26.78l43.84-43.84l-87.24-87.24V431.29
	l123.95-123.95c14.04-14.04,30.88-25.05,48.8-31.53L764,257.02c20.3-7.56,36.71,8.85,29.37,29.37l-18.79,51.18
	c-6.69,17.71-17.49,34.55-31.53,48.8L618.88,510.32l87.46,87.46l43.84-43.84c7.34-7.34,19.43-7.34,26.78,0L794.01,571
	c16.63,16.63,16.63,43.84,0,60.68l-42.76,42.76l93.72,80.33C851.67,760.38,854.26,765.56,854.26,770.96z"/>
<path class="st3" d="M1079.9,540c0,27.05-1.99,53.9-5.97,79.96C1035.35,880.31,810.99,1080,540.1,1080h-0.2v-78.96h0.2
	c254.59,0,461.04-206.45,461.04-461.04c0-254.78-206.45-461.04-461.04-461.04h-0.2V0h0.2C838.24,0,1079.9,241.66,1079.9,540z"/>
</svg>
