<?xml version="1.0" encoding="utf-8"?>
<!-- Generator: Adobe Illustrator 27.4.1, SVG Export Plug-In . SVG Version: 6.00 Build 0)  -->
<svg version="1.1" id="Layer_1" xmlns="http://www.w3.org/2000/svg" xmlns:xlink="http://www.w3.org/1999/xlink" x="0px" y="0px"
	 viewBox="0 0 1080 1080" style="enable-background:new 0 0 1080 1080;" xml:space="preserve">
<style type="text/css">
	.st0{fill:#9291D9;}
	.st1{fill:#FFFFFF;}
</style>
<path class="st0" d="M1008.1,366.87L713.25,71.54c-95.87-95.39-250.52-95.39-346.39,0L71.54,366.87
	c-95.39,95.39-95.39,250.52,0,345.91l295.32,295.32c95.87,95.87,250.52,95.87,346.39,0l294.84-295.32
	C1103.97,617.38,1103.97,462.25,1008.1,366.87z M869.35,617.38L617.38,869.35c-43.36,43.36-114.18,43.36-157.54,0L207.88,617.38
	c-43.84-43.84-43.84-114.18,0-157.54l251.97-251.96c43.36-43.84,114.18-43.84,157.54,0l251.97,251.96
	C912.71,503.2,912.71,573.54,869.35,617.38z"/>
<g>
	<path class="st1" d="M511.19,695.84L384.2,568.85c-15.94-15.94-15.94-41.77,0-57.71l126.99-126.99c15.94-15.94,41.77-15.94,57.71,0
		l126.99,126.99c15.94,15.94,15.94,41.77,0,57.71L568.9,695.84C552.96,711.78,527.12,711.78,511.19,695.84z"/>
</g>
</svg>
