<?xml version="1.0" encoding="utf-8"?>
<!-- Generator: Adobe Illustrator 27.4.1, SVG Export Plug-In . SVG Version: 6.00 Build 0)  -->
<svg version="1.1" id="Layer_1" xmlns="http://www.w3.org/2000/svg" xmlns:xlink="http://www.w3.org/1999/xlink" x="0px" y="0px"
	 viewBox="0 0 1080 1080" style="enable-background:new 0 0 1080 1080;" xml:space="preserve">
<style type="text/css">
	.st0{fill:#AD78D8;}
	.st1{fill:#C7A3E8;}
	.st2{fill:#FFFFFF;}
</style>
<path class="st0" d="M153.28,347.32L472.56,28.03c37.37-37.37,97.94-37.37,135,0L926.53,347c23.2,23.2,23.2,60.57,0,83.45
	l-18.04,18.36l-25.77,25.78c-23.2,23.2-60.57,23.2-83.77,0L581.79,257.43c-22.88-23.2-60.25-23.2-83.45,0L280.86,474.58
	c-19.01,19.33-47.68,22.55-70.24,9.67c-4.83-2.26-9.34-5.8-13.21-9.67l-25.78-25.78l-18.36-18.04c-2.9-3.22-5.48-6.44-7.73-9.99
	C130.73,397.9,133.3,367.29,153.28,347.32z"/>
<path class="st1" d="M934.39,420.78c-14.82,15.14-39.31,15.14-54.13,0.32l-37.05,36.73l26.1,26.42c4.83-2.26,9.34-5.8,13.21-9.67
	l25.78-25.78l18.36-18.04C929.56,427.54,932.14,424.32,934.39,420.78z"/>
<path class="st1" d="M145.54,420.78c14.82,15.14,39.31,15.14,54.13,0.32l37.05,36.73l-26.1,26.42c-4.83-2.26-9.34-5.8-13.21-9.67
	l-25.78-25.78l-18.36-18.04C150.38,427.54,147.8,424.32,145.54,420.78z"/>
<path class="st1" d="M908.56,448.95l-25.78,25.78c-23.2,23.2-60.57,23.2-83.77,0L581.87,257.57c-22.88-23.2-60.25-23.2-83.45,0
	L280.94,474.73c-22.87,23.2-60.25,23.2-83.45,0l-25.77-25.78l313.16-313.49c30.61-30.29,79.9-30.29,110.51,0L908.56,448.95z"/>
<path class="st0" d="M926.72,732.68l-319.29,319.29c-37.37,37.37-97.94,37.37-135,0L153.47,733c-23.2-23.2-23.2-60.57,0-83.45
	l18.04-18.36l25.77-25.78c23.2-23.2,60.57-23.2,83.77,0l217.15,217.16c22.88,23.2,60.25,23.2,83.45,0l217.48-217.16
	c19.01-19.33,47.68-22.55,70.24-9.67c4.83,2.26,9.34,5.8,13.21,9.67l25.78,25.78l18.36,18.04c2.9,3.22,5.48,6.44,7.73,9.99
	C949.27,682.1,946.7,712.71,926.72,732.68z"/>
<path class="st1" d="M145.61,659.22c14.82-15.14,39.31-15.14,54.13-0.32l37.05-36.73l-26.1-26.42c-4.83,2.26-9.34,5.8-13.21,9.67
	l-25.78,25.78l-18.36,18.04C150.44,652.46,147.86,655.68,145.61,659.22z"/>
<path class="st1" d="M934.46,659.22c-14.82-15.14-39.31-15.14-54.13-0.32l-37.05-36.73l26.1-26.42c4.83,2.26,9.34,5.8,13.21,9.67
	l25.78,25.78l18.36,18.04C929.62,652.46,932.2,655.68,934.46,659.22z"/>
<path class="st1" d="M171.44,631.05l25.78-25.78c23.2-23.2,60.57-23.2,83.77,0l217.15,217.16c22.88,23.2,60.25,23.2,83.45,0
	l217.48-217.16c22.87-23.2,60.25-23.2,83.45,0l25.77,25.78L595.11,944.53c-30.61,30.29-79.9,30.29-110.51,0L171.44,631.05z"/>
<g>
	<path class="st2" d="M503.64,643.7l-63.81-63.81c-20.96-20.96-20.96-54.94,0-75.89l63.81-63.81c20.96-20.96,54.94-20.96,75.89,0
		l63.81,63.81c20.96,20.96,20.96,54.94,0,75.89l-63.81,63.81C558.58,664.66,524.6,664.66,503.64,643.7z"/>
</g>
</svg>
