<?xml version="1.0" encoding="utf-8"?>
<!-- Generator: Adobe Illustrator 27.4.1, SVG Export Plug-In . SVG Version: 6.00 Build 0)  -->
<svg version="1.1" id="Layer_1" xmlns="http://www.w3.org/2000/svg" xmlns:xlink="http://www.w3.org/1999/xlink" x="0px" y="0px"
	 viewBox="0 0 1080 1080" style="enable-background:new 0 0 1080 1080;" xml:space="preserve">
<style type="text/css">
	.st0{fill:#FFFFFF;}
	.st1{fill:#9291D9;}
	.st2{opacity:0.25;}
</style>
<g>
	<path class="st0" d="M517.6,649.89l-87.49-87.49c-12.37-12.37-12.37-32.42,0-44.79l87.49-87.49c12.37-12.37,32.42-12.37,44.79,0
		l87.49,87.49c12.37,12.37,12.37,32.42,0,44.79l-87.49,87.49C550.03,662.25,529.97,662.25,517.6,649.89z"/>
</g>
<path class="st1" d="M923.69,330.81L630.4,37.52c-50.03-50.03-130.77-50.03-180.8,0L156.31,330.81
	c-24.15,24.15-37.61,56.59-37.61,90.75v236.88c0,34.16,13.46,66.59,37.61,90.75l293.29,293.29c50.03,50.03,130.77,50.03,180.8,0
	l293.29-293.29c24.15-24.15,37.61-56.59,37.61-90.75V421.56C961.3,387.4,947.84,354.96,923.69,330.81z M773.6,549.06
	c0,34.16-13.46,66.59-37.61,90.75L630.4,745.05c-50.03,50.03-130.77,50.03-180.8,0L344.01,639.81
	c-24.15-24.15-37.61-56.59-37.61-90.75v-18.12c0-34.16,13.46-66.59,37.61-90.75L449.6,334.95c50.03-50.03,130.77-50.03,180.8,0
	l105.58,105.24c24.15,24.15,37.61,56.59,37.61,90.75V549.06z"/>
<g class="st2">
	<path class="st0" d="M837.77,394.3L610.04,166.92c-38.64-38.64-101.44-38.64-140.09,0L242.22,394.3
		c-18.63,18.63-28.98,44.17-28.98,70.39v150.62c0,26.22,10.35,51.76,28.98,70.39l227.73,227.39c38.64,38.64,101.44,38.64,140.09,0
		L837.77,685.7c18.63-18.63,28.98-44.16,28.98-70.39V464.69C866.76,438.47,856.41,412.93,837.77,394.3z M773.6,549.06
		c0,34.16-13.46,66.59-37.61,90.75L630.4,745.05c-50.03,50.03-130.77,50.03-180.8,0L344.01,639.81
		c-24.15-24.15-37.61-56.59-37.61-90.75v-18.12c0-34.16,13.46-66.59,37.61-90.75L449.6,334.95c50.03-50.03,130.77-50.03,180.8,0
		l105.58,105.24c24.15,24.15,37.61,56.59,37.61,90.75V549.06z"/>
</g>
</svg>
