<?xml version="1.0" encoding="utf-8"?>
<!-- Generator: Adobe Illustrator 27.4.1, SVG Export Plug-In . SVG Version: 6.00 Build 0)  -->
<svg version="1.1" id="Layer_1" xmlns="http://www.w3.org/2000/svg" xmlns:xlink="http://www.w3.org/1999/xlink" x="0px" y="0px"
	 viewBox="0 0 1080 1080" style="enable-background:new 0 0 1080 1080;" xml:space="preserve">
<style type="text/css">
	.st0{fill:#D6A876;}
	.st1{fill:#8B5E3C;}
	.st2{opacity:0.2;fill:#C49A6C;}
	.st3{fill:#FFF200;}
	.st4{fill:#27AAE1;}
	.st5{fill:#009444;}
	.st6{fill:#CD285C;}
</style>
<path class="st0" d="M1079.98,539.92c0,27.21-1.94,53.99-6.05,80.12C1035.49,880.25,811.12,1080,540.11,1080
	C241.88,1080,0.02,838.14,0.02,539.92S241.88,0.05,540.11,0.05C838.33,0.05,1079.98,241.69,1079.98,539.92z"/>
<circle class="st1" cx="540.06" cy="539.94" r="461.08"/>
<path class="st2" d="M540.04,0v1079.96c-298.26,0-539.98-241.72-539.98-539.98C0.06,241.72,241.78,0,540.04,0z"/>
<path class="st0" d="M735.77,288.17C535.14-8.55,130.7,407.4,279.13,599.4c86.15,111.46,118.23-30.4,190.18,37.45
	c61.85,58.33-77.62,113.69,57.06,246.46C601.69,957.57,1004.01,684.69,735.77,288.17z M430.43,529.07
	c-12.22,12.22-29.05,19.7-47.61,19.7c-37.11,0-67.17-30.06-67.17-67.17c0-18.55,7.48-35.53,19.7-47.61
	c12.08-12.23,28.91-19.7,47.46-19.7c18.55,0,35.38,7.48,47.61,19.7c12.23,12.08,19.7,29.05,19.7,47.61
	C450.13,500.16,442.66,516.99,430.43,529.07z"/>
<circle class="st3" cx="642.71" cy="730.44" r="60.55"/>
<circle class="st4" cx="716.48" cy="576.3" r="60.55"/>
<circle class="st5" cx="682.35" cy="403.45" r="60.55"/>
<circle class="st6" cx="540.06" cy="296.4" r="60.55"/>
</svg>
