<?xml version="1.0" encoding="utf-8"?>
<!-- Generator: Adobe Illustrator 27.4.1, SVG Export Plug-In . SVG Version: 6.00 Build 0)  -->
<svg version="1.1" id="Layer_1" xmlns="http://www.w3.org/2000/svg" xmlns:xlink="http://www.w3.org/1999/xlink" x="0px" y="0px"
	 viewBox="0 0 1080 1080" style="enable-background:new 0 0 1080 1080;" xml:space="preserve">
<style type="text/css">
	.st0{fill:#009444;}
	.st1{opacity:0.75;fill:#231F20;}
	.st2{opacity:0.2;fill:#231F20;}
	.st3{fill:#8DC63F;}
</style>
<path class="st0" d="M1079.97,539.92c0,27.21-1.94,53.99-6.05,80.12C1035.49,880.25,811.12,1080,540.11,1080
	C241.88,1080,0.02,838.14,0.02,539.92S241.88,0.05,540.11,0.05C838.33,0.05,1079.97,241.69,1079.97,539.92z"/>
<circle class="st1" cx="540.06" cy="539.94" r="461.08"/>
<path class="st2" d="M540,1079.96V0c298.26,0,539.98,241.72,539.98,539.98C1079.98,838.24,838.26,1079.96,540,1079.96z"/>
<path class="st3" d="M618.65,698.27c0-15.86,6.05-31.73,18.16-43.84l115.24-115.24L637.22,424.37c-24.21-24.21-24.21-63.45,0-87.67
	c24.19-24.21,63.44-24.21,87.66-0.01l158.68,158.66c23.25,23.27,23.25,64.41,0,87.68L724.46,742.11
	c-24.21,24.2-63.47,24.2-87.66-0.01C624.7,730,618.65,714.13,618.65,698.27z"/>
<path class="st3" d="M459.91,381.78c0,15.86-6.05,31.73-18.16,43.84L326.52,540.86l114.82,114.82c24.21,24.21,24.21,63.45,0,87.67
	c-24.19,24.21-63.44,24.21-87.66,0.01L195.01,584.7c-23.25-23.27-23.25-64.41,0-87.68L354.1,337.94
	c24.21-24.2,63.47-24.2,87.66,0.01C453.86,350.05,459.91,365.92,459.91,381.78z"/>
</svg>
