<?xml version="1.0" encoding="utf-8"?>
<!-- Generator: Adobe Illustrator 27.4.1, SVG Export Plug-In . SVG Version: 6.00 Build 0)  -->
<svg version="1.1" id="Layer_1" xmlns="http://www.w3.org/2000/svg" xmlns:xlink="http://www.w3.org/1999/xlink" x="0px" y="0px"
	 viewBox="0 0 1080 1080" style="enable-background:new 0 0 1080 1080;" xml:space="preserve">
<style type="text/css">
	.st0{fill:#FBB040;}
	.st1{fill:#FFFFFF;}
	.st2{fill:#FFAF00;}
	.st3{fill:#ED9300;}
	.st4{opacity:0.43;fill:#FBB040;}
</style>
<path class="st0" d="M1080,540c0,298.24-241.66,540.11-539.89,540.11C241.87,1080.11,0,838.24,0,540S241.87-0.11,540.11-0.11
	C838.34-0.11,1080,241.76,1080,540z"/>
<circle class="st1" cx="540.06" cy="539.96" r="461.1"/>
<path class="st2" d="M894.5,416.46v261.12c0,25.69-20.91,46.61-46.61,46.61H232.24c-1.59,0-3.19,0-4.78-0.2
	c-23.5-2.39-41.83-22.31-41.83-46.41v-265.7c0-42.23,51.59-62.74,80.47-32.07l67.12,71.11c18.72,19.92,50.59,19.32,68.92-1.2
	L506.1,332.81c9.16-10.36,21.51-15.54,34.06-15.73c12.75-0.2,25.5,4.58,34.86,14.74l111.54,118.91
	c18.72,19.92,50.59,19.72,68.72-0.8l57.96-64.53C841.72,353.52,894.5,373.64,894.5,416.46z"/>
<path class="st3" d="M894.4,416.45v261.12c0,25.69-20.91,46.61-46.61,46.61H540.07V317.06c12.75-0.2,25.5,4.58,34.86,14.74
	l111.54,118.91c18.72,19.92,50.59,19.72,68.71-0.8l57.96-64.53C841.62,353.51,894.4,373.63,894.4,416.45z"/>
<path class="st4" d="M1080,540c0,298.24-241.66,540.11-539.89,540.11V-0.11C838.34-0.11,1080,241.76,1080,540z"/>
</svg>
