<?xml version="1.0" encoding="utf-8"?>
<!-- Generator: Adobe Illustrator 27.4.1, SVG Export Plug-In . SVG Version: 6.00 Build 0)  -->
<svg version="1.1" id="Layer_1" xmlns="http://www.w3.org/2000/svg" xmlns:xlink="http://www.w3.org/1999/xlink" x="0px" y="0px"
	 viewBox="0 0 1080 1080" style="enable-background:new 0 0 1080 1080;" xml:space="preserve">
<style type="text/css">
	.st0{fill:#A4A3DD;}
	.st1{fill:#8083BF;}
	.st2{opacity:0.1;fill:#484871;}
	.st3{fill:#C0BDF7;}
	.st4{fill:none;stroke:#C0BDF7;stroke-width:65.3273;stroke-linecap:round;stroke-miterlimit:10;}
	.st5{opacity:0.15;fill:#8083BF;}
</style>
<ellipse transform="matrix(0.7071 -0.7071 0.7071 0.7071 -223.6773 539.9958)" class="st0" cx="539.99" cy="540" rx="540" ry="540"/>
<circle class="st1" cx="540.02" cy="539.96" r="461.1"/>
<path class="st2" d="M540.01,1080V0c298.27,0,540,241.73,540,540C1080.01,838.27,838.28,1080,540.01,1080z"/>
<path class="st3" d="M758.39,383.8v43.19c0,121.15-97.4,285.93-218.33,288.52c-1.08,0.22-1.94,0.22-3.02,0.22
	c-122.23,0-221.35-166.5-221.35-288.73V337.5c0-61.11,49.67-64.49,110.78-64.49h221.14C708.72,273.01,758.39,322.68,758.39,383.8z"
	/>
<g>
	<line class="st3" x1="537.05" y1="453.88" x2="537.05" y2="756.16"/>
	<path class="st3" d="M597.07,453.98V756.1c0,32.18-25.27,58.31-57.01,60.03h-3.02c-33.26,0-60.04-26.78-60.04-60.03V453.98
		c0-33.26,26.78-60.25,60.04-60.25C570.3,393.73,597.07,420.72,597.07,453.98z"/>
</g>
<path class="st3" d="M674.6,830.12c0,18.14-14.68,33.04-32.83,33.04H432.3c-18.14,0-32.82-14.9-32.82-33.04
	c0-19.87,8.21-38.01,21.16-51.18c13.17-13.17,31.31-21.38,51.4-21.38h130.01C642.21,757.56,674.6,790.17,674.6,830.12z"/>
<path class="st4" d="M730.59,354.9c0,0,119.53-28.99,119.53,64.57c0,41.59-52.18,289.48-205.12,234.33"/>
<path class="st4" d="M349.32,354.9c0,0-119.53-28.99-119.53,64.57c0,41.59,52.18,289.48,205.12,234.33"/>
<path class="st5" d="M540.01,1080V0c298.27,0,540,241.73,540,540C1080.01,838.27,838.28,1080,540.01,1080z"/>
</svg>
