<?xml version="1.0" encoding="utf-8"?>
<!-- Generator: Adobe Illustrator 27.4.1, SVG Export Plug-In . SVG Version: 6.00 Build 0)  -->
<svg version="1.1" id="Layer_1" xmlns="http://www.w3.org/2000/svg" xmlns:xlink="http://www.w3.org/1999/xlink" x="0px" y="0px"
	 viewBox="0 0 1080 1080" style="enable-background:new 0 0 1080 1080;" xml:space="preserve">
<style type="text/css">
	.st0{fill:#ED9300;}
	.st1{fill:#B56D00;}
	.st2{opacity:0.15;fill:#FFAF00;}
	.st3{fill:#FFAF00;}
	.st4{fill:none;}
	.st5{fill:none;stroke:#FFA100;stroke-width:65.3273;stroke-linecap:round;stroke-miterlimit:10;}
	.st6{fill:none;stroke:#FFAF00;stroke-width:65.3273;stroke-linecap:round;stroke-miterlimit:10;}
	.st7{fill:#FFA100;}
</style>
<ellipse transform="matrix(0.7071 -0.7071 0.7071 0.7071 -223.6755 540.0001)" class="st0" cx="540" cy="540" rx="540" ry="540"/>
<circle class="st1" cx="540.03" cy="539.96" r="461.1"/>
<path class="st2" d="M540,0v1080C241.73,1080,0,838.27,0,540C0,241.73,241.73,0,540,0z"/>
<path class="st3" d="M758.4,383.8v43.19c0,121.15-97.4,285.93-218.33,288.52c-1.08,0.22-1.94,0.22-3.02,0.22
	c-122.23,0-221.35-166.5-221.35-288.73V337.5c0-61.11,49.67-64.49,110.78-64.49h221.14C708.73,273.01,758.4,322.68,758.4,383.8z"/>
<g>
	<line class="st4" x1="537.05" y1="453.88" x2="537.05" y2="756.16"/>
	<path class="st3" d="M597.08,453.98V756.1c0,32.18-25.27,58.31-57.01,60.03h-3.02c-33.26,0-60.04-26.78-60.04-60.03V453.98
		c0-33.26,26.78-60.25,60.04-60.25C570.3,393.73,597.08,420.72,597.08,453.98z"/>
</g>
<path class="st3" d="M674.61,828.66c0,18.14-14.68,33.04-32.83,33.04H432.31c-18.14,0-32.82-14.9-32.82-33.04
	c0-19.87,8.21-38.01,21.16-51.18c13.17-13.17,31.31-21.38,51.4-21.38h130.01C642.21,756.1,674.61,788.71,674.61,828.66z"/>
<path class="st5" d="M730.6,354.9c0,0,119.53-28.99,119.53,64.57c0,41.59-52.18,289.48-205.12,234.33"/>
<path class="st6" d="M349.32,354.9c0,0-119.53-28.99-119.53,64.57c0,41.59,52.18,289.48,205.12,234.33"/>
<path class="st7" d="M597.08,702.11v53.99h4.97c40.17,0,72.56,32.61,72.56,72.56c0,18.14-14.68,33.04-32.83,33.04H540.07V273.01
	h107.55c61.12,0,110.78,3.38,110.78,64.49v89.48C758.4,528.27,690.16,660.22,597.08,702.11z"/>
</svg>
