<?xml version="1.0" encoding="utf-8"?>
<!-- Generator: Adobe Illustrator 27.4.1, SVG Export Plug-In . SVG Version: 6.00 Build 0)  -->
<svg version="1.1" id="Layer_1" xmlns="http://www.w3.org/2000/svg" xmlns:xlink="http://www.w3.org/1999/xlink" x="0px" y="0px"
	 viewBox="0 0 1080 1080" style="enable-background:new 0 0 1080 1080;" xml:space="preserve">
<style type="text/css">
	.st0{fill:#FF6170;}
	.st1{fill:#BE1E2D;}
	.st2{opacity:0.1;fill:#FFFFFF;}
</style>
<path class="st0" d="M1080,539.8c0,27.25-1.99,54.1-6.17,80.16C1035.45,880.11,811.09,1080,540.2,1080H540
	C241.66,1079.8,0,838.14,0,539.8C0,241.66,241.66,0.2,540,0h0.2C838.34,0,1080,241.66,1080,539.8z"/>
<circle class="st1" cx="540.07" cy="539.87" r="461.06"/>
<path class="st0" d="M466.83,400.88l-80.59,80.59c-31.16,31.16-81.67,31.16-112.83,0l0,0c-31.16-31.16-31.16-81.67,0-112.83
	l80.59-80.59c31.16-31.16,81.67-31.16,112.83,0l0,0C497.99,319.21,497.99,369.73,466.83,400.88z"/>
<path class="st0" d="M620.07,259.5l99.9,33.3c7.18,2.39,13.7,6.42,19.05,11.78l118.25,118.25c19.04,19.04,19.04,49.9,0,68.94
	L796,553.04c-19.04,19.04-49.9,19.04-68.94,0L602.54,428.51c-5.01-5.01-8.87-11.05-11.3-17.7l-32.35-88.3
	C544.84,284.17,581.34,246.58,620.07,259.5z"/>
<path class="st0" d="M312.54,793.42l-10.7-10.7c-21.9-21.9-21.9-57.4,0-79.3l408.32-408.32c21.9-21.9,57.4-21.9,79.3,0l10.7,10.7
	c21.9,21.9,21.9,57.4,0,79.3L391.84,793.42C369.94,815.31,334.43,815.31,312.54,793.42z"/>
<path class="st0" d="M280.45,305.79l10.7-10.7c21.9-21.9,57.4-21.9,79.3,0l408.32,408.32c21.9,21.9,21.9,57.4,0,79.3l-10.7,10.7
	c-21.9,21.9-57.4,21.9-79.3,0L280.45,385.09C258.55,363.2,258.55,327.69,280.45,305.79z"/>
<path class="st2" d="M540,0v1080C241.66,1079.8,0,838.14,0,539.8C0,241.66,241.66,0.2,540,0z"/>
</svg>
