<?xml version="1.0" encoding="utf-8"?>
<!-- Generator: Adobe Illustrator 27.4.1, SVG Export Plug-In . SVG Version: 6.00 Build 0)  -->
<svg version="1.1" id="Layer_1" xmlns="http://www.w3.org/2000/svg" xmlns:xlink="http://www.w3.org/1999/xlink" x="0px" y="0px"
	 viewBox="0 0 1080 1080" style="enable-background:new 0 0 1080 1080;" xml:space="preserve">
<style type="text/css">
	.st0{fill:#C889E6;}
	.st1{fill:#7F3F98;}
	.st2{opacity:0.2;fill:#C3B6D9;}
	.st3{opacity:0.75;fill:#C889E6;}
	.st4{fill:#FFAF00;}
	.st5{opacity:0.1;fill:#FFFFFF;}
</style>
<path class="st0" d="M1079.99,539.92c0,27.21-1.94,53.99-6.05,80.12C1035.5,880.25,811.13,1080,540.12,1080
	C241.9,1080,0.04,838.14,0.04,539.92S241.9,0.05,540.12,0.05C838.34,0.05,1079.99,241.69,1079.99,539.92z"/>
<ellipse transform="matrix(0.7071 -0.7071 0.7071 0.7071 -223.5744 539.9828)" class="st1" cx="540.03" cy="539.87" rx="461.05" ry="461.05"/>
<path class="st2" d="M540.05,0v1079.96c-298.26,0-539.98-241.72-539.98-539.98C0.07,241.72,241.79,0,540.05,0z"/>
<path class="st3" d="M540.01,788.15L540.01,788.15c-98.24,0-177.89-79.64-177.89-177.89v-62.63c0-98.24,79.64-177.89,177.89-177.89
	h0c98.24,0,177.89,79.64,177.89,177.89v62.63C717.9,708.51,638.26,788.15,540.01,788.15z"/>
<path class="st0" d="M847.13,550.61L571.06,712.92c-9.75,5.57-20.29,8.55-31.03,8.55c-10.74,0-21.28-2.98-31.03-8.55L232.73,550.61
	c-39.58-23.27-40.18-80.35-1-104.62l276.27-170.06c9.75-6.17,20.88-9.15,32.02-9.15s22.28,2.98,32.02,9.15l276.27,170.06
	C887.51,470.25,886.91,527.34,847.13,550.61z"/>
<g>
	<path class="st4" d="M547.5,477.17c-45.39,17.8-89.82,38.86-131.34,64.26c-7.84,4.93-16.28,10.45-23.64,15.97
		c-20.31,15.38-42.54,35.31-48.73,60.61c-1.88,7.73-2.12,16-1.63,23.97c1.47,18.35,5.97,37.06,6.33,55.58
		c0.53,34.44-5.19,69.31-20.38,100.77c-2.56,5.07-5.23,10-8.63,14.74c-5.52,7.57-16.13,9.23-23.7,3.71
		c-1.46-1.07-2.7-2.31-3.71-3.71c-3.41-4.73-6.07-9.65-8.63-14.73c-19.8-40.82-25.13-93.88-9.49-136.91
		c5.74-16.16,13.72-31.8,22.51-46.54c8.81-14.7,18.57-29.01,29.78-41.9c7.28-8.23,15.34-15.49,23.88-22.26
		c10.4-8.16,21.16-15.18,32.19-21.91c49.08-29.22,101.6-52.61,150.21-82.19c8.07-4.97,18.67-2.41,23.57,5.7
		C561.66,461.32,557.4,473.55,547.5,477.17L547.5,477.17z"/>
</g>
<path class="st5" d="M540.03,266.78v454.69c-10.74,0-21.28-2.98-31.03-8.55L232.73,550.61c-39.58-23.27-40.18-80.35-1-104.62
	l276.27-170.06C517.75,269.76,528.89,266.78,540.03,266.78z"/>
<path class="st5" d="M78.98,539.87c0,254.79,206.46,461.06,461.05,461.06v78.96c-298.15,0-540.02-241.67-540.02-539.82
	C0.01,241.72,241.88,0.05,540.03,0.05v78.77C285.44,78.82,78.98,285.28,78.98,539.87z"/>
</svg>
