<?xml version="1.0" encoding="utf-8"?>
<!-- Generator: Adobe Illustrator 27.4.1, SVG Export Plug-In . SVG Version: 6.00 Build 0)  -->
<svg version="1.1" id="Layer_1" xmlns="http://www.w3.org/2000/svg" xmlns:xlink="http://www.w3.org/1999/xlink" x="0px" y="0px"
	 viewBox="0 0 1080 1080" style="enable-background:new 0 0 1080 1080;" xml:space="preserve">
<style type="text/css">
	.st0{fill:#8881FF;}
	.st1{fill:#6250D0;}
	.st2{fill:none;stroke:#FFFFFF;stroke-width:107.3701;stroke-linecap:round;stroke-linejoin:round;stroke-miterlimit:10;}
	.st3{opacity:0.1;fill:#FFFFFF;}
</style>
<path class="st0" d="M1080,539.8c0,27.25-1.99,54.1-6.17,80.16C1035.45,880.11,811.09,1080,540.2,1080H540
	C241.66,1079.8,0,838.14,0,539.8C0,241.66,241.66,0.2,540,0h0.2C838.34,0,1080,241.66,1080,539.8z"/>
<path class="st1" d="M667.09,155.15c-72.71-97.29-181.32-89.24-251.56,0c-116.81-33.6-201.47,51.03-203.52,147.87
	c-104.37,20.34-141.27,139.42-77.74,239.25c-79.22,90.17-28.64,223.57,77.74,239.25c-8.82,111.75,62.02,185.82,203.52,147.86
	c66.22,89.88,182.87,97.92,251.56,0c118.96,34.74,210.3-18.59,203.52-147.86c124.75-39.6,140.21-140.82,77.74-239.25
	c48.29-90.19,44.27-204.84-77.74-239.25C869.92,182.56,786.72,124.28,667.09,155.15z"/>
<polyline class="st2" points="312.06,599.68 460.12,747.74 768.08,439.78 "/>
<path class="st3" d="M540,0v1080C241.66,1079.8,0,838.14,0,539.8C0,241.66,241.66,0.2,540,0z"/>
</svg>
